<mxfile host="65bd71144e">
    <diagram id="ASTWp4ZXTidoFe2xOwB_" name="1b">
        <mxGraphModel dx="817" dy="402" grid="1" gridSize="10" guides="1" tooltips="1" connect="1" arrows="1" fold="1" page="1" pageScale="1" pageWidth="827" pageHeight="1169" math="0" shadow="0">
            <root>
                <mxCell id="0"/>
                <mxCell id="1" parent="0"/>
                <mxCell id="28" value="房屋買賣銷售系統" style="swimlane;whiteSpace=wrap;html=1;" vertex="1" parent="1">
                    <mxGeometry x="300" y="80" width="280" height="560" as="geometry"/>
                </mxCell>
                <mxCell id="41" value="&lt;div style=&quot;color: rgb(204, 204, 204); font-family: Consolas, &amp;quot;Courier New&amp;quot;, monospace; line-height: 19px;&quot;&gt;&lt;div style=&quot;line-height: 19px;&quot;&gt;提供技術支援，解決系統問題並改進功能。&lt;/div&gt;&lt;/div&gt;" style="ellipse;whiteSpace=wrap;html=1;labelBackgroundColor=none;fontSize=14;" vertex="1" parent="28">
                    <mxGeometry x="55" y="140" width="170" height="100" as="geometry"/>
                </mxCell>
                <mxCell id="42" value="&lt;span style=&quot;color: rgb(204, 204, 204); font-family: Consolas, &amp;quot;Courier New&amp;quot;, monospace;&quot;&gt;買家預約房屋參觀，提供資訊並安排參觀時間。&lt;/span&gt;" style="ellipse;whiteSpace=wrap;html=1;labelBackgroundColor=none;fontSize=14;" vertex="1" parent="28">
                    <mxGeometry x="55" y="247" width="170" height="100" as="geometry"/>
                </mxCell>
                <mxCell id="44" value="&lt;div style=&quot;color: rgb(204, 204, 204); font-family: Consolas, &amp;quot;Courier New&amp;quot;, monospace; line-height: 19px;&quot;&gt;審核買家預約申請，確認資訊安排參觀。&lt;/div&gt;" style="ellipse;whiteSpace=wrap;html=1;labelBackgroundColor=none;fontSize=14;" vertex="1" parent="28">
                    <mxGeometry x="55" y="354" width="170" height="100" as="geometry"/>
                </mxCell>
                <mxCell id="43" value="&lt;div style=&quot;color: rgb(204, 204, 204); font-family: Consolas, &amp;quot;Courier New&amp;quot;, monospace; line-height: 19px;&quot;&gt;專業導覽與解說，協助買家了解房屋特色。&lt;/div&gt;" style="ellipse;whiteSpace=wrap;html=1;labelBackgroundColor=none;fontSize=14;" vertex="1" parent="28">
                    <mxGeometry x="55" y="30" width="170" height="100" as="geometry"/>
                </mxCell>
                <mxCell id="48" style="edgeStyle=none;html=1;entryX=0;entryY=0.5;entryDx=0;entryDy=0;fontSize=14;" edge="1" parent="1" source="29" target="42">
                    <mxGeometry relative="1" as="geometry"/>
                </mxCell>
                <mxCell id="49" style="edgeStyle=none;html=1;entryX=0;entryY=0;entryDx=0;entryDy=0;fontSize=14;" edge="1" parent="1" source="29" target="44">
                    <mxGeometry relative="1" as="geometry"/>
                </mxCell>
                <mxCell id="60" style="edgeStyle=none;html=1;entryX=0;entryY=0;entryDx=0;entryDy=0;fontSize=14;" edge="1" parent="1" source="29" target="43">
                    <mxGeometry relative="1" as="geometry"/>
                </mxCell>
                <mxCell id="29" value="&lt;font style=&quot;font-size: 14px;&quot;&gt;預約型買家&lt;/font&gt;" style="shape=umlActor;verticalLabelPosition=bottom;verticalAlign=top;html=1;outlineConnect=0;" vertex="1" parent="1">
                    <mxGeometry x="130" y="140" width="70" height="140" as="geometry"/>
                </mxCell>
                <mxCell id="47" style="edgeStyle=none;html=1;entryX=0;entryY=0.5;entryDx=0;entryDy=0;fontSize=14;" edge="1" parent="1" source="30" target="45">
                    <mxGeometry relative="1" as="geometry"/>
                </mxCell>
                <mxCell id="50" style="edgeStyle=none;html=1;entryX=0;entryY=0.5;entryDx=0;entryDy=0;fontSize=14;" edge="1" parent="1" source="30" target="43">
                    <mxGeometry relative="1" as="geometry"/>
                </mxCell>
                <mxCell id="30" value="&lt;div style=&quot;color: rgb(204, 204, 204); font-family: Consolas, &amp;quot;Courier New&amp;quot;, monospace; font-size: 14px; line-height: 19px;&quot;&gt;現場即時參觀買家&lt;/div&gt;" style="shape=umlActor;verticalLabelPosition=bottom;verticalAlign=top;html=1;outlineConnect=0;" vertex="1" parent="1">
                    <mxGeometry x="130" y="390" width="70" height="140" as="geometry"/>
                </mxCell>
                <mxCell id="51" style="edgeStyle=none;html=1;entryX=1;entryY=0.5;entryDx=0;entryDy=0;fontSize=14;" edge="1" parent="1" source="31" target="44">
                    <mxGeometry relative="1" as="geometry"/>
                </mxCell>
                <mxCell id="52" style="edgeStyle=none;html=1;entryX=1;entryY=0.5;entryDx=0;entryDy=0;fontSize=14;" edge="1" parent="1" source="31" target="42">
                    <mxGeometry relative="1" as="geometry"/>
                </mxCell>
                <mxCell id="53" style="edgeStyle=none;html=1;entryX=1;entryY=0.5;entryDx=0;entryDy=0;fontSize=14;" edge="1" parent="1" source="31" target="45">
                    <mxGeometry relative="1" as="geometry"/>
                </mxCell>
                <mxCell id="31" value="&lt;div style=&quot;color: rgb(204, 204, 204); font-family: Consolas, &amp;quot;Courier New&amp;quot;, monospace; font-size: 14px; line-height: 19px;&quot;&gt;代銷管理者&lt;/div&gt;" style="shape=umlActor;verticalLabelPosition=bottom;verticalAlign=top;html=1;outlineConnect=0;" vertex="1" parent="1">
                    <mxGeometry x="640" y="480" width="70" height="140" as="geometry"/>
                </mxCell>
                <mxCell id="55" style="edgeStyle=none;html=1;entryX=1;entryY=0.5;entryDx=0;entryDy=0;fontSize=14;" edge="1" parent="1" source="32" target="41">
                    <mxGeometry relative="1" as="geometry"/>
                </mxCell>
                <mxCell id="57" style="edgeStyle=none;html=1;entryX=1;entryY=0;entryDx=0;entryDy=0;fontSize=14;" edge="1" parent="1" source="32" target="45">
                    <mxGeometry relative="1" as="geometry"/>
                </mxCell>
                <mxCell id="59" style="edgeStyle=none;html=1;entryX=1;entryY=0;entryDx=0;entryDy=0;fontSize=14;" edge="1" parent="1" source="32" target="42">
                    <mxGeometry relative="1" as="geometry"/>
                </mxCell>
                <mxCell id="32" value="&lt;div style=&quot;color: rgb(204, 204, 204); font-family: Consolas, &amp;quot;Courier New&amp;quot;, monospace; font-size: 14px; line-height: 19px;&quot;&gt;系統開發團隊&lt;/div&gt;" style="shape=umlActor;verticalLabelPosition=bottom;verticalAlign=top;html=1;outlineConnect=0;" vertex="1" parent="1">
                    <mxGeometry x="640" y="270" width="70" height="140" as="geometry"/>
                </mxCell>
                <mxCell id="54" style="edgeStyle=none;html=1;entryX=1;entryY=0.5;entryDx=0;entryDy=0;fontSize=14;" edge="1" parent="1" source="33" target="43">
                    <mxGeometry relative="1" as="geometry"/>
                </mxCell>
                <mxCell id="45" value="&lt;div style=&quot;color: rgb(204, 204, 204); font-family: Consolas, &amp;quot;Courier New&amp;quot;, monospace; line-height: 19px;&quot;&gt;買家現場填寫資訊&lt;/div&gt;&lt;div style=&quot;color: rgb(204, 204, 204); font-family: Consolas, &amp;quot;Courier New&amp;quot;, monospace; line-height: 19px;&quot;&gt;申請即時參觀。&lt;/div&gt;" style="ellipse;whiteSpace=wrap;html=1;labelBackgroundColor=none;fontSize=14;" vertex="1" parent="1">
                    <mxGeometry x="355" y="538" width="170" height="100" as="geometry"/>
                </mxCell>
                <mxCell id="33" value="&lt;div style=&quot;color: rgb(204, 204, 204); font-family: Consolas, &amp;quot;Courier New&amp;quot;, monospace; font-size: 14px; line-height: 19px;&quot;&gt;接待人員&lt;/div&gt;" style="shape=umlActor;verticalLabelPosition=bottom;verticalAlign=top;html=1;outlineConnect=0;" vertex="1" parent="1">
                    <mxGeometry x="640" y="60" width="70" height="140" as="geometry"/>
                </mxCell>
            </root>
        </mxGraphModel>
    </diagram>
    <diagram id="rZzn33AnG-YyRM46aVCJ" name="1c">
        <mxGraphModel dx="490" dy="241" grid="1" gridSize="10" guides="1" tooltips="1" connect="1" arrows="1" fold="1" page="1" pageScale="1" pageWidth="827" pageHeight="1169" math="0" shadow="0">
            <root>
                <mxCell id="0"/>
                <mxCell id="1" parent="0"/>
                <mxCell id="RyZ9ePJYq0uKb2WivwKp-1" value="" style="group" vertex="1" connectable="0" parent="1">
                    <mxGeometry x="120" y="90" width="270" height="200" as="geometry"/>
                </mxCell>
                <mxCell id="RyZ9ePJYq0uKb2WivwKp-2" value="" style="group" vertex="1" connectable="0" parent="RyZ9ePJYq0uKb2WivwKp-1">
                    <mxGeometry width="180" height="200" as="geometry"/>
                </mxCell>
                <mxCell id="RyZ9ePJYq0uKb2WivwKp-3" value="買家" style="swimlane;whiteSpace=wrap;html=1;fontSize=13;" vertex="1" parent="RyZ9ePJYq0uKb2WivwKp-2">
                    <mxGeometry width="90" height="200" as="geometry"/>
                </mxCell>
                <mxCell id="RyZ9ePJYq0uKb2WivwKp-4" style="edgeStyle=none;rounded=0;html=1;entryX=0.5;entryY=0;entryDx=0;entryDy=0;fontSize=9;endArrow=classic;endFill=1;" edge="1" parent="RyZ9ePJYq0uKb2WivwKp-3" source="RyZ9ePJYq0uKb2WivwKp-5" target="RyZ9ePJYq0uKb2WivwKp-6">
                    <mxGeometry relative="1" as="geometry"/>
                </mxCell>
                <mxCell id="RyZ9ePJYq0uKb2WivwKp-5" value="" style="ellipse;html=1;fontSize=13;direction=east;flipV=1;aspect=fixed;" vertex="1" parent="RyZ9ePJYq0uKb2WivwKp-3">
                    <mxGeometry x="37" y="30" width="16" height="14.55" as="geometry"/>
                </mxCell>
                <mxCell id="RyZ9ePJYq0uKb2WivwKp-6" value="&lt;font style=&quot;font-size: 9px;&quot;&gt;預約申請&lt;/font&gt;" style="rounded=1;whiteSpace=wrap;html=1;fontSize=13;" vertex="1" parent="RyZ9ePJYq0uKb2WivwKp-3">
                    <mxGeometry x="25" y="60" width="40" height="20" as="geometry"/>
                </mxCell>
                <mxCell id="RyZ9ePJYq0uKb2WivwKp-7" value="" style="group" vertex="1" connectable="0" parent="RyZ9ePJYq0uKb2WivwKp-3">
                    <mxGeometry x="37" y="160" width="16" height="14.550000000000011" as="geometry"/>
                </mxCell>
                <mxCell id="RyZ9ePJYq0uKb2WivwKp-8" value="" style="ellipse;html=1;fontSize=13;direction=east;flipV=1;aspect=fixed;" vertex="1" parent="RyZ9ePJYq0uKb2WivwKp-7">
                    <mxGeometry width="16" height="14.55" as="geometry"/>
                </mxCell>
                <mxCell id="RyZ9ePJYq0uKb2WivwKp-9" value="" style="ellipse;html=1;fontSize=13;direction=east;flipV=1;aspect=fixed;" vertex="1" parent="RyZ9ePJYq0uKb2WivwKp-7">
                    <mxGeometry x="2.509999999999998" y="2.280000000000001" width="10.99" height="10" as="geometry"/>
                </mxCell>
                <mxCell id="RyZ9ePJYq0uKb2WivwKp-10" value="代銷管理者" style="swimlane;whiteSpace=wrap;html=1;fontSize=13;" vertex="1" parent="RyZ9ePJYq0uKb2WivwKp-2">
                    <mxGeometry x="90" width="90" height="200" as="geometry"/>
                </mxCell>
                <mxCell id="RyZ9ePJYq0uKb2WivwKp-11" style="edgeStyle=none;rounded=0;html=1;entryX=0.5;entryY=0;entryDx=0;entryDy=0;fontSize=9;endArrow=classic;endFill=1;" edge="1" parent="RyZ9ePJYq0uKb2WivwKp-10" source="RyZ9ePJYq0uKb2WivwKp-12" target="RyZ9ePJYq0uKb2WivwKp-14">
                    <mxGeometry relative="1" as="geometry"/>
                </mxCell>
                <mxCell id="RyZ9ePJYq0uKb2WivwKp-12" value="&lt;font style=&quot;font-size: 9px;&quot;&gt;檢查資訊是否完整&lt;/font&gt;" style="rounded=1;whiteSpace=wrap;html=1;fontSize=13;" vertex="1" parent="RyZ9ePJYq0uKb2WivwKp-10">
                    <mxGeometry x="25" y="55" width="40" height="30" as="geometry"/>
                </mxCell>
                <mxCell id="RyZ9ePJYq0uKb2WivwKp-13" style="edgeStyle=none;rounded=0;html=1;entryX=0.5;entryY=0;entryDx=0;entryDy=0;fontSize=9;endArrow=classic;endFill=1;" edge="1" parent="RyZ9ePJYq0uKb2WivwKp-10" source="RyZ9ePJYq0uKb2WivwKp-14" target="RyZ9ePJYq0uKb2WivwKp-17">
                    <mxGeometry relative="1" as="geometry">
                        <mxPoint x="45" y="150" as="targetPoint"/>
                    </mxGeometry>
                </mxCell>
                <mxCell id="RyZ9ePJYq0uKb2WivwKp-14" value="" style="rhombus;whiteSpace=wrap;html=1;fontSize=9;" vertex="1" parent="RyZ9ePJYq0uKb2WivwKp-10">
                    <mxGeometry x="35" y="110" width="20" height="20" as="geometry"/>
                </mxCell>
                <mxCell id="RyZ9ePJYq0uKb2WivwKp-15" value="[是]" style="text;html=1;strokeColor=none;fillColor=none;align=center;verticalAlign=middle;whiteSpace=wrap;rounded=0;labelBackgroundColor=none;fontSize=9;" vertex="1" parent="RyZ9ePJYq0uKb2WivwKp-10">
                    <mxGeometry x="55" y="90" width="20" height="20" as="geometry"/>
                </mxCell>
                <mxCell id="RyZ9ePJYq0uKb2WivwKp-16" value="[不是]" style="text;html=1;strokeColor=none;fillColor=none;align=center;verticalAlign=middle;whiteSpace=wrap;rounded=0;labelBackgroundColor=none;fontSize=9;" vertex="1" parent="RyZ9ePJYq0uKb2WivwKp-10">
                    <mxGeometry x="10" y="130" width="25" height="20" as="geometry"/>
                </mxCell>
                <mxCell id="RyZ9ePJYq0uKb2WivwKp-17" value="&lt;font style=&quot;font-size: 9px;&quot;&gt;重新填寫預約申請&lt;/font&gt;" style="rounded=1;whiteSpace=wrap;html=1;fontSize=13;" vertex="1" parent="RyZ9ePJYq0uKb2WivwKp-10">
                    <mxGeometry x="25" y="152.28" width="40" height="30" as="geometry"/>
                </mxCell>
                <mxCell id="RyZ9ePJYq0uKb2WivwKp-18" style="edgeStyle=none;rounded=0;html=1;entryX=0;entryY=0.5;entryDx=0;entryDy=0;fontSize=9;endArrow=classic;endFill=1;" edge="1" parent="RyZ9ePJYq0uKb2WivwKp-2" source="RyZ9ePJYq0uKb2WivwKp-6" target="RyZ9ePJYq0uKb2WivwKp-12">
                    <mxGeometry relative="1" as="geometry"/>
                </mxCell>
                <mxCell id="RyZ9ePJYq0uKb2WivwKp-19" style="edgeStyle=none;rounded=0;html=1;entryX=1;entryY=0.5;entryDx=0;entryDy=0;fontSize=9;endArrow=classic;endFill=1;" edge="1" parent="RyZ9ePJYq0uKb2WivwKp-2" source="RyZ9ePJYq0uKb2WivwKp-17" target="RyZ9ePJYq0uKb2WivwKp-8">
                    <mxGeometry relative="1" as="geometry"/>
                </mxCell>
                <mxCell id="RyZ9ePJYq0uKb2WivwKp-20" value="接待人員" style="swimlane;whiteSpace=wrap;html=1;fontSize=13;" vertex="1" parent="RyZ9ePJYq0uKb2WivwKp-1">
                    <mxGeometry x="180" width="90" height="200" as="geometry"/>
                </mxCell>
                <mxCell id="RyZ9ePJYq0uKb2WivwKp-21" value="&lt;font style=&quot;font-size: 9px;&quot;&gt;接待買家&lt;/font&gt;" style="rounded=1;whiteSpace=wrap;html=1;fontSize=13;" vertex="1" parent="RyZ9ePJYq0uKb2WivwKp-20">
                    <mxGeometry x="25" y="110" width="40" height="20" as="geometry"/>
                </mxCell>
                <mxCell id="RyZ9ePJYq0uKb2WivwKp-22" value="" style="group" vertex="1" connectable="0" parent="RyZ9ePJYq0uKb2WivwKp-20">
                    <mxGeometry x="37" y="162.28" width="16" height="14.550000000000011" as="geometry"/>
                </mxCell>
                <mxCell id="RyZ9ePJYq0uKb2WivwKp-23" value="" style="ellipse;html=1;fontSize=13;direction=east;flipV=1;aspect=fixed;" vertex="1" parent="RyZ9ePJYq0uKb2WivwKp-22">
                    <mxGeometry width="16" height="14.55" as="geometry"/>
                </mxCell>
                <mxCell id="RyZ9ePJYq0uKb2WivwKp-24" value="" style="ellipse;html=1;fontSize=13;direction=east;flipV=1;aspect=fixed;" vertex="1" parent="RyZ9ePJYq0uKb2WivwKp-22">
                    <mxGeometry x="2.509999999999998" y="2.280000000000001" width="10.99" height="10" as="geometry"/>
                </mxCell>
                <mxCell id="RyZ9ePJYq0uKb2WivwKp-25" style="edgeStyle=none;rounded=0;html=1;exitX=0.5;exitY=1;exitDx=0;exitDy=0;fontSize=9;endArrow=classic;endFill=1;entryX=0.5;entryY=0;entryDx=0;entryDy=0;" edge="1" parent="RyZ9ePJYq0uKb2WivwKp-20" source="RyZ9ePJYq0uKb2WivwKp-21" target="RyZ9ePJYq0uKb2WivwKp-23">
                    <mxGeometry relative="1" as="geometry">
                        <mxPoint x="45.27586206896558" y="160" as="targetPoint"/>
                    </mxGeometry>
                </mxCell>
                <mxCell id="RyZ9ePJYq0uKb2WivwKp-26" style="edgeStyle=none;rounded=0;html=1;entryX=0;entryY=0.5;entryDx=0;entryDy=0;fontSize=9;endArrow=classic;endFill=1;" edge="1" parent="RyZ9ePJYq0uKb2WivwKp-1" source="RyZ9ePJYq0uKb2WivwKp-14" target="RyZ9ePJYq0uKb2WivwKp-21">
                    <mxGeometry relative="1" as="geometry"/>
                </mxCell>
            </root>
        </mxGraphModel>
    </diagram>
    <diagram id="YNBZmlXG5lnyesX3e9GX" name="1d">
        <mxGraphModel dx="817" dy="402" grid="1" gridSize="10" guides="1" tooltips="1" connect="1" arrows="1" fold="1" page="1" pageScale="1" pageWidth="827" pageHeight="1169" math="0" shadow="0">
            <root>
                <mxCell id="0"/>
                <mxCell id="1" parent="0"/>
                <mxCell id="Cd5SH9WWn5MMGQbqxmfk-32" style="edgeStyle=none;html=1;entryX=0.5;entryY=0;entryDx=0;entryDy=0;endArrow=none;endFill=0;" edge="1" parent="1" source="Cd5SH9WWn5MMGQbqxmfk-33" target="Cd5SH9WWn5MMGQbqxmfk-48">
                    <mxGeometry relative="1" as="geometry"/>
                </mxCell>
                <mxCell id="Cd5SH9WWn5MMGQbqxmfk-33" value="代銷管理者" style="swimlane;fontStyle=0;childLayout=stackLayout;horizontal=1;startSize=30;horizontalStack=0;resizeParent=1;resizeParentMax=0;resizeLast=0;collapsible=1;marginBottom=0;whiteSpace=wrap;html=1;labelBackgroundColor=none;fontSize=20;" vertex="1" parent="1">
                    <mxGeometry x="334" y="180" width="180" height="90" as="geometry"/>
                </mxCell>
                <mxCell id="Cd5SH9WWn5MMGQbqxmfk-34" value="+管理者編號" style="text;strokeColor=none;fillColor=none;align=left;verticalAlign=middle;spacingLeft=4;spacingRight=4;overflow=hidden;points=[[0,0.5],[1,0.5]];portConstraint=eastwest;rotatable=0;whiteSpace=wrap;html=1;labelBackgroundColor=none;fontSize=20;" vertex="1" parent="Cd5SH9WWn5MMGQbqxmfk-33">
                    <mxGeometry y="30" width="180" height="30" as="geometry"/>
                </mxCell>
                <mxCell id="Cd5SH9WWn5MMGQbqxmfk-35" value="+姓名" style="text;strokeColor=none;fillColor=none;align=left;verticalAlign=middle;spacingLeft=4;spacingRight=4;overflow=hidden;points=[[0,0.5],[1,0.5]];portConstraint=eastwest;rotatable=0;whiteSpace=wrap;html=1;labelBackgroundColor=none;fontSize=20;" vertex="1" parent="Cd5SH9WWn5MMGQbqxmfk-33">
                    <mxGeometry y="60" width="180" height="30" as="geometry"/>
                </mxCell>
                <mxCell id="Cd5SH9WWn5MMGQbqxmfk-36" value="1" style="text;html=1;align=center;verticalAlign=middle;resizable=0;points=[];autosize=1;strokeColor=none;fillColor=none;fontSize=20;" vertex="1" parent="1">
                    <mxGeometry x="170" y="490" width="30" height="40" as="geometry"/>
                </mxCell>
                <mxCell id="Cd5SH9WWn5MMGQbqxmfk-37" value="1..*" style="text;html=1;align=center;verticalAlign=middle;resizable=0;points=[];autosize=1;strokeColor=none;fillColor=none;fontSize=20;" vertex="1" parent="1">
                    <mxGeometry x="370" y="420" width="50" height="40" as="geometry"/>
                </mxCell>
                <mxCell id="Cd5SH9WWn5MMGQbqxmfk-38" value="" style="triangle;whiteSpace=wrap;html=1;labelBackgroundColor=none;fontSize=20;rotation=90;" vertex="1" parent="1">
                    <mxGeometry x="445" y="390" width="30" height="40" as="geometry"/>
                </mxCell>
                <mxCell id="Cd5SH9WWn5MMGQbqxmfk-39" value="審查" style="text;html=1;align=center;verticalAlign=middle;resizable=0;points=[];autosize=1;strokeColor=none;fillColor=none;fontSize=20;" vertex="1" parent="1">
                    <mxGeometry x="430" y="350" width="60" height="40" as="geometry"/>
                </mxCell>
                <mxCell id="Cd5SH9WWn5MMGQbqxmfk-40" value="買家" style="swimlane;fontStyle=0;childLayout=stackLayout;horizontal=1;startSize=30;horizontalStack=0;resizeParent=1;resizeParentMax=0;resizeLast=0;collapsible=1;marginBottom=0;whiteSpace=wrap;html=1;labelBackgroundColor=none;fontSize=20;" vertex="1" parent="1">
                    <mxGeometry x="30" y="490" width="140" height="90" as="geometry"/>
                </mxCell>
                <mxCell id="Cd5SH9WWn5MMGQbqxmfk-41" value="+姓名" style="text;strokeColor=none;fillColor=none;align=left;verticalAlign=middle;spacingLeft=4;spacingRight=4;overflow=hidden;points=[[0,0.5],[1,0.5]];portConstraint=eastwest;rotatable=0;whiteSpace=wrap;html=1;labelBackgroundColor=none;fontSize=20;" vertex="1" parent="Cd5SH9WWn5MMGQbqxmfk-40">
                    <mxGeometry y="30" width="140" height="30" as="geometry"/>
                </mxCell>
                <mxCell id="Cd5SH9WWn5MMGQbqxmfk-42" value="+聯絡電話" style="text;strokeColor=none;fillColor=none;align=left;verticalAlign=middle;spacingLeft=4;spacingRight=4;overflow=hidden;points=[[0,0.5],[1,0.5]];portConstraint=eastwest;rotatable=0;whiteSpace=wrap;html=1;labelBackgroundColor=none;fontSize=20;" vertex="1" parent="Cd5SH9WWn5MMGQbqxmfk-40">
                    <mxGeometry y="60" width="140" height="30" as="geometry"/>
                </mxCell>
                <mxCell id="Cd5SH9WWn5MMGQbqxmfk-43" value="接待人員" style="swimlane;fontStyle=0;childLayout=stackLayout;horizontal=1;startSize=30;horizontalStack=0;resizeParent=1;resizeParentMax=0;resizeLast=0;collapsible=1;marginBottom=0;whiteSpace=wrap;html=1;labelBackgroundColor=none;fontSize=20;" vertex="1" parent="1">
                    <mxGeometry x="650" y="180" width="160" height="150" as="geometry"/>
                </mxCell>
                <mxCell id="Cd5SH9WWn5MMGQbqxmfk-44" value="+員工編號" style="text;strokeColor=none;fillColor=none;align=left;verticalAlign=middle;spacingLeft=4;spacingRight=4;overflow=hidden;points=[[0,0.5],[1,0.5]];portConstraint=eastwest;rotatable=0;whiteSpace=wrap;html=1;labelBackgroundColor=none;fontSize=20;" vertex="1" parent="Cd5SH9WWn5MMGQbqxmfk-43">
                    <mxGeometry y="30" width="160" height="30" as="geometry"/>
                </mxCell>
                <mxCell id="Cd5SH9WWn5MMGQbqxmfk-45" value="+姓名" style="text;strokeColor=none;fillColor=none;align=left;verticalAlign=middle;spacingLeft=4;spacingRight=4;overflow=hidden;points=[[0,0.5],[1,0.5]];portConstraint=eastwest;rotatable=0;whiteSpace=wrap;html=1;labelBackgroundColor=none;fontSize=20;" vertex="1" parent="Cd5SH9WWn5MMGQbqxmfk-43">
                    <mxGeometry y="60" width="160" height="30" as="geometry"/>
                </mxCell>
                <mxCell id="Cd5SH9WWn5MMGQbqxmfk-46" value="+聯絡電話" style="text;strokeColor=none;fillColor=none;align=left;verticalAlign=middle;spacingLeft=4;spacingRight=4;overflow=hidden;points=[[0,0.5],[1,0.5]];portConstraint=eastwest;rotatable=0;whiteSpace=wrap;html=1;labelBackgroundColor=none;fontSize=20;" vertex="1" parent="Cd5SH9WWn5MMGQbqxmfk-43">
                    <mxGeometry y="90" width="160" height="30" as="geometry"/>
                </mxCell>
                <mxCell id="Cd5SH9WWn5MMGQbqxmfk-47" value="+閒置狀況" style="text;strokeColor=none;fillColor=none;align=left;verticalAlign=middle;spacingLeft=4;spacingRight=4;overflow=hidden;points=[[0,0.5],[1,0.5]];portConstraint=eastwest;rotatable=0;whiteSpace=wrap;html=1;labelBackgroundColor=none;fontSize=20;" vertex="1" parent="Cd5SH9WWn5MMGQbqxmfk-43">
                    <mxGeometry y="120" width="160" height="30" as="geometry"/>
                </mxCell>
                <mxCell id="Cd5SH9WWn5MMGQbqxmfk-48" value="申請表" style="swimlane;fontStyle=0;childLayout=stackLayout;horizontal=1;startSize=30;horizontalStack=0;resizeParent=1;resizeParentMax=0;resizeLast=0;collapsible=1;marginBottom=0;whiteSpace=wrap;html=1;labelBackgroundColor=none;fontSize=20;" vertex="1" parent="1">
                    <mxGeometry x="350" y="460" width="140" height="150" as="geometry"/>
                </mxCell>
                <mxCell id="Cd5SH9WWn5MMGQbqxmfk-49" value="+姓名" style="text;strokeColor=none;fillColor=none;align=left;verticalAlign=middle;spacingLeft=4;spacingRight=4;overflow=hidden;points=[[0,0.5],[1,0.5]];portConstraint=eastwest;rotatable=0;whiteSpace=wrap;html=1;labelBackgroundColor=none;fontSize=20;" vertex="1" parent="Cd5SH9WWn5MMGQbqxmfk-48">
                    <mxGeometry y="30" width="140" height="30" as="geometry"/>
                </mxCell>
                <mxCell id="Cd5SH9WWn5MMGQbqxmfk-50" value="+聯絡電話" style="text;strokeColor=none;fillColor=none;align=left;verticalAlign=middle;spacingLeft=4;spacingRight=4;overflow=hidden;points=[[0,0.5],[1,0.5]];portConstraint=eastwest;rotatable=0;whiteSpace=wrap;html=1;labelBackgroundColor=none;fontSize=20;" vertex="1" parent="Cd5SH9WWn5MMGQbqxmfk-48">
                    <mxGeometry y="60" width="140" height="30" as="geometry"/>
                </mxCell>
                <mxCell id="Cd5SH9WWn5MMGQbqxmfk-51" value="+日期" style="text;strokeColor=none;fillColor=none;align=left;verticalAlign=middle;spacingLeft=4;spacingRight=4;overflow=hidden;points=[[0,0.5],[1,0.5]];portConstraint=eastwest;rotatable=0;whiteSpace=wrap;html=1;labelBackgroundColor=none;fontSize=20;" vertex="1" parent="Cd5SH9WWn5MMGQbqxmfk-48">
                    <mxGeometry y="90" width="140" height="30" as="geometry"/>
                </mxCell>
                <mxCell id="Cd5SH9WWn5MMGQbqxmfk-52" value="+申請類型" style="text;strokeColor=none;fillColor=none;align=left;verticalAlign=middle;spacingLeft=4;spacingRight=4;overflow=hidden;points=[[0,0.5],[1,0.5]];portConstraint=eastwest;rotatable=0;whiteSpace=wrap;html=1;labelBackgroundColor=none;fontSize=20;" vertex="1" parent="Cd5SH9WWn5MMGQbqxmfk-48">
                    <mxGeometry y="120" width="140" height="30" as="geometry"/>
                </mxCell>
                <mxCell id="Cd5SH9WWn5MMGQbqxmfk-53" style="edgeStyle=none;html=1;entryX=0;entryY=0.5;entryDx=0;entryDy=0;endArrow=none;endFill=0;" edge="1" parent="1" source="Cd5SH9WWn5MMGQbqxmfk-41" target="Cd5SH9WWn5MMGQbqxmfk-48">
                    <mxGeometry relative="1" as="geometry"/>
                </mxCell>
                <mxCell id="Cd5SH9WWn5MMGQbqxmfk-54" value="1" style="text;html=1;align=center;verticalAlign=middle;resizable=0;points=[];autosize=1;strokeColor=none;fillColor=none;fontSize=20;" vertex="1" parent="1">
                    <mxGeometry x="310" y="490" width="30" height="40" as="geometry"/>
                </mxCell>
                <mxCell id="Cd5SH9WWn5MMGQbqxmfk-55" value="" style="triangle;whiteSpace=wrap;html=1;labelBackgroundColor=none;fontSize=20;" vertex="1" parent="1">
                    <mxGeometry x="280" y="440" width="30" height="40" as="geometry"/>
                </mxCell>
                <mxCell id="Cd5SH9WWn5MMGQbqxmfk-56" value="提交" style="text;html=1;align=center;verticalAlign=middle;resizable=0;points=[];autosize=1;strokeColor=none;fillColor=none;fontSize=20;" vertex="1" parent="1">
                    <mxGeometry x="220" y="440" width="60" height="40" as="geometry"/>
                </mxCell>
                <mxCell id="Cd5SH9WWn5MMGQbqxmfk-57" value="1" style="text;html=1;align=center;verticalAlign=middle;resizable=0;points=[];autosize=1;strokeColor=none;fillColor=none;fontSize=20;" vertex="1" parent="1">
                    <mxGeometry x="380" y="310" width="30" height="40" as="geometry"/>
                </mxCell>
                <mxCell id="Cd5SH9WWn5MMGQbqxmfk-58" style="edgeStyle=none;html=1;entryX=0;entryY=0.5;entryDx=0;entryDy=0;endArrow=none;endFill=0;" edge="1" parent="1" source="Cd5SH9WWn5MMGQbqxmfk-35" target="Cd5SH9WWn5MMGQbqxmfk-45">
                    <mxGeometry relative="1" as="geometry"/>
                </mxCell>
                <mxCell id="Cd5SH9WWn5MMGQbqxmfk-59" value="指派" style="text;html=1;align=center;verticalAlign=middle;resizable=0;points=[];autosize=1;strokeColor=none;fillColor=none;fontSize=20;" vertex="1" parent="1">
                    <mxGeometry x="540" y="190" width="60" height="40" as="geometry"/>
                </mxCell>
                <mxCell id="Cd5SH9WWn5MMGQbqxmfk-60" value="" style="triangle;whiteSpace=wrap;html=1;labelBackgroundColor=none;fontSize=20;" vertex="1" parent="1">
                    <mxGeometry x="600" y="190" width="30" height="40" as="geometry"/>
                </mxCell>
                <mxCell id="Cd5SH9WWn5MMGQbqxmfk-61" value="1" style="text;html=1;align=center;verticalAlign=middle;resizable=0;points=[];autosize=1;strokeColor=none;fillColor=none;fontSize=20;" vertex="1" parent="1">
                    <mxGeometry x="514" y="210" width="30" height="40" as="geometry"/>
                </mxCell>
                <mxCell id="Cd5SH9WWn5MMGQbqxmfk-62" value="1" style="text;html=1;align=center;verticalAlign=middle;resizable=0;points=[];autosize=1;strokeColor=none;fillColor=none;fontSize=20;" vertex="1" parent="1">
                    <mxGeometry x="620" y="214" width="30" height="40" as="geometry"/>
                </mxCell>
            </root>
        </mxGraphModel>
    </diagram>
    <diagram id="AscKv5OJ8TlSJ3xA4gjY" name="2b">
        <mxGraphModel dx="1102" dy="787" grid="1" gridSize="10" guides="1" tooltips="1" connect="1" arrows="1" fold="1" page="1" pageScale="1" pageWidth="827" pageHeight="1169" math="0" shadow="0">
            <root>
                <mxCell id="0"/>
                <mxCell id="1" parent="0"/>
            </root>
        </mxGraphModel>
    </diagram>
    <diagram id="jKp8lnFoO_ODNvvGuu6S" name="2d">
        <mxGraphModel dx="1102" dy="787" grid="1" gridSize="10" guides="1" tooltips="1" connect="1" arrows="1" fold="1" page="1" pageScale="1" pageWidth="827" pageHeight="1169" math="0" shadow="0">
            <root>
                <mxCell id="0"/>
                <mxCell id="1" parent="0"/>
            </root>
        </mxGraphModel>
    </diagram>
</mxfile>